<svg width="81" height="102" viewBox="0 0 81 102" fill="none" xmlns="http://www.w3.org/2000/svg">
<path d="M0 0H81V102H0V0Z" fill="#535353"/>
<path d="M21.3153 54V46.7273H23.7726C24.3432 46.7273 24.8096 46.8303 25.1718 47.0362C25.5364 47.2398 25.8063 47.5156 25.9814 47.8636C26.1566 48.2116 26.2442 48.5999 26.2442 49.0284C26.2442 49.4569 26.1566 49.8464 25.9814 50.1967C25.8086 50.5471 25.5411 50.8265 25.1789 51.0348C24.8167 51.2408 24.3527 51.3438 23.7868 51.3438H22.0255V50.5625H23.7584C24.1491 50.5625 24.4627 50.495 24.6995 50.3601C24.9362 50.2251 25.1079 50.0428 25.2144 49.8132C25.3233 49.5812 25.3778 49.3196 25.3778 49.0284C25.3778 48.7372 25.3233 48.4768 25.2144 48.2472C25.1079 48.0175 24.935 47.8376 24.6959 47.7074C24.4568 47.5748 24.1396 47.5085 23.7442 47.5085H22.1959V54H21.3153Z" fill="white"/>
<path d="M33.7993 50.3636C33.7993 51.1307 33.6608 51.7936 33.3838 52.3523C33.1068 52.911 32.7268 53.3419 32.2439 53.6449C31.7609 53.9479 31.2093 54.0994 30.589 54.0994C29.9688 54.0994 29.4172 53.9479 28.9342 53.6449C28.4513 53.3419 28.0713 52.911 27.7943 52.3523C27.5173 51.7936 27.3788 51.1307 27.3788 50.3636C27.3788 49.5966 27.5173 48.9337 27.7943 48.375C28.0713 47.8163 28.4513 47.3854 28.9342 47.0824C29.4172 46.7794 29.9688 46.6278 30.589 46.6278C31.2093 46.6278 31.7609 46.7794 32.2439 47.0824C32.7268 47.3854 33.1068 47.8163 33.3838 48.375C33.6608 48.9337 33.7993 49.5966 33.7993 50.3636ZM32.947 50.3636C32.947 49.7339 32.8416 49.2024 32.6309 48.7692C32.4226 48.3359 32.1397 48.008 31.7822 47.7855C31.4271 47.563 31.0294 47.4517 30.589 47.4517C30.1487 47.4517 29.7498 47.563 29.3923 47.7855C29.0372 48.008 28.7543 48.3359 28.5436 48.7692C28.3353 49.2024 28.2311 49.7339 28.2311 50.3636C28.2311 50.9934 28.3353 51.5249 28.5436 51.9581C28.7543 52.3913 29.0372 52.7192 29.3923 52.9418C29.7498 53.1643 30.1487 53.2756 30.589 53.2756C31.0294 53.2756 31.4271 53.1643 31.7822 52.9418C32.1397 52.7192 32.4226 52.3913 32.6309 51.9581C32.8416 51.5249 32.947 50.9934 32.947 50.3636Z" fill="white"/>
<path d="M39.2574 48.5455C39.2148 48.1856 39.0419 47.9062 38.7389 47.7074C38.4359 47.5085 38.0642 47.4091 37.6238 47.4091C37.3019 47.4091 37.0202 47.4612 36.7787 47.5653C36.5396 47.6695 36.3525 47.8127 36.2176 47.995C36.085 48.1773 36.0187 48.3845 36.0187 48.6165C36.0187 48.8106 36.0649 48.9775 36.1572 49.1172C36.2519 49.2545 36.3727 49.3693 36.5194 49.4616C36.6662 49.5516 36.8201 49.6262 36.9811 49.6854C37.1421 49.7422 37.29 49.7884 37.425 49.8239L38.1636 50.0227C38.353 50.0724 38.5637 50.1411 38.7957 50.2287C39.0301 50.3163 39.2538 50.4358 39.4669 50.5874C39.6823 50.7365 39.8599 50.9283 39.9996 51.1626C40.1392 51.397 40.2091 51.6847 40.2091 52.0256C40.2091 52.4186 40.1061 52.7737 39.9001 53.0909C39.6965 53.4081 39.3982 53.6603 39.0052 53.8473C38.6146 54.0343 38.1399 54.1278 37.5812 54.1278C37.0604 54.1278 36.6094 54.0438 36.2282 53.8757C35.8495 53.7076 35.5512 53.4732 35.3334 53.1726C35.1179 52.8719 34.996 52.5227 34.9676 52.125H35.8767C35.9004 52.3996 35.9927 52.6269 36.1537 52.8068C36.317 52.9844 36.523 53.1169 36.7716 53.2045C37.0225 53.2898 37.2924 53.3324 37.5812 53.3324C37.9174 53.3324 38.2193 53.2779 38.4868 53.169C38.7543 53.0578 38.9662 52.9039 39.1224 52.7074C39.2787 52.5085 39.3568 52.2765 39.3568 52.0114C39.3568 51.7699 39.2893 51.5734 39.1544 51.4219C39.0194 51.2704 38.8419 51.1473 38.6217 51.0526C38.4015 50.9579 38.1636 50.875 37.9079 50.804L37.0131 50.5483C36.4449 50.3849 35.9951 50.1518 35.6636 49.8487C35.3322 49.5457 35.1665 49.1491 35.1665 48.6591C35.1665 48.2519 35.2765 47.8968 35.4967 47.5938C35.7193 47.2884 36.0175 47.0516 36.3916 46.8835C36.768 46.7131 37.1882 46.6278 37.6523 46.6278C38.121 46.6278 38.5377 46.7119 38.9023 46.88C39.2668 47.0457 39.5557 47.273 39.7687 47.5618C39.9842 47.8506 40.0978 48.1785 40.1096 48.5455H39.2574Z" fill="white"/>
<path d="M41.2593 47.5085V46.7273H46.7139V47.5085H44.4269V54H43.5463V47.5085H41.2593Z" fill="white"/>
<path d="M48.0731 54V46.7273H52.4623V47.5085H48.9537V49.9659H52.235V50.7472H48.9537V53.2188H52.5191V54H48.0731Z" fill="white"/>
<path d="M54.0496 54V46.7273H56.507C57.0752 46.7273 57.5416 46.8243 57.9062 47.0185C58.2707 47.2102 58.5406 47.4742 58.7158 47.8104C58.891 48.1465 58.9786 48.5289 58.9786 48.9574C58.9786 49.3859 58.891 49.7659 58.7158 50.0973C58.5406 50.4287 58.2719 50.6892 57.9097 50.8786C57.5475 51.0656 57.0847 51.1591 56.5212 51.1591H54.5326V50.3636H56.4928C56.8811 50.3636 57.1936 50.3068 57.4303 50.1932C57.6694 50.0795 57.8422 49.9186 57.9488 49.7102C58.0577 49.4995 58.1121 49.2486 58.1121 48.9574C58.1121 48.6662 58.0577 48.4117 57.9488 48.1939C57.8399 47.9761 57.6659 47.808 57.4268 47.6896C57.1876 47.5689 56.8716 47.5085 56.4786 47.5085H54.9303V54H54.0496ZM57.4729 50.733L59.2627 54H58.24L56.4786 50.733H57.4729Z" fill="white"/>
<path d="M36.0178 58.7273V66H35.1656L31.2025 60.2898H31.1315V66H30.2508V58.7273H31.1031L35.0803 64.4517H35.1514V58.7273H36.0178Z" fill="white"/>
<path d="M43.9165 62.3636C43.9165 63.1307 43.778 63.7936 43.501 64.3523C43.224 64.911 42.844 65.3419 42.3611 65.6449C41.8781 65.9479 41.3265 66.0994 40.7062 66.0994C40.086 66.0994 39.5344 65.9479 39.0514 65.6449C38.5684 65.3419 38.1885 64.911 37.9115 64.3523C37.6345 63.7936 37.496 63.1307 37.496 62.3636C37.496 61.5966 37.6345 60.9337 37.9115 60.375C38.1885 59.8163 38.5684 59.3854 39.0514 59.0824C39.5344 58.7794 40.086 58.6278 40.7062 58.6278C41.3265 58.6278 41.8781 58.7794 42.3611 59.0824C42.844 59.3854 43.224 59.8163 43.501 60.375C43.778 60.9337 43.9165 61.5966 43.9165 62.3636ZM43.0642 62.3636C43.0642 61.7339 42.9588 61.2024 42.7481 60.7692C42.5398 60.3359 42.2569 60.008 41.8994 59.7855C41.5443 59.563 41.1466 59.4517 40.7062 59.4517C40.2659 59.4517 39.867 59.563 39.5095 59.7855C39.1544 60.008 38.8715 60.3359 38.6608 60.7692C38.4524 61.2024 38.3483 61.7339 38.3483 62.3636C38.3483 62.9934 38.4524 63.5249 38.6608 63.9581C38.8715 64.3913 39.1544 64.7192 39.5095 64.9418C39.867 65.1643 40.2659 65.2756 40.7062 65.2756C41.1466 65.2756 41.5443 65.1643 41.8994 64.9418C42.2569 64.7192 42.5398 64.3913 42.7481 63.9581C42.9588 63.5249 43.0642 62.9934 43.0642 62.3636Z" fill="white"/>
<path d="M44.6968 59.5085V58.7273H50.1514V59.5085H47.8644V66H46.9838V59.5085H44.6968Z" fill="white"/>
<path d="M23.0731 78V70.7273H27.4339V71.5085H23.9537V73.9659H27.1072V74.7472H23.9537V78H23.0731Z" fill="white"/>
<path d="M35.0786 74.3636C35.0786 75.1307 34.9401 75.7936 34.6631 76.3523C34.3861 76.911 34.0061 77.3419 33.5232 77.6449C33.0402 77.9479 32.4886 78.0994 31.8683 78.0994C31.2481 78.0994 30.6965 77.9479 30.2135 77.6449C29.7306 77.3419 29.3506 76.911 29.0736 76.3523C28.7966 75.7936 28.6581 75.1307 28.6581 74.3636C28.6581 73.5966 28.7966 72.9337 29.0736 72.375C29.3506 71.8163 29.7306 71.3854 30.2135 71.0824C30.6965 70.7794 31.2481 70.6278 31.8683 70.6278C32.4886 70.6278 33.0402 70.7794 33.5232 71.0824C34.0061 71.3854 34.3861 71.8163 34.6631 72.375C34.9401 72.9337 35.0786 73.5966 35.0786 74.3636ZM34.2263 74.3636C34.2263 73.7339 34.1209 73.2024 33.9102 72.7692C33.7019 72.3359 33.419 72.0081 33.0615 71.7855C32.7064 71.563 32.3087 71.4517 31.8683 71.4517C31.428 71.4517 31.0291 71.563 30.6716 71.7855C30.3165 72.0081 30.0336 72.3359 29.8229 72.7692C29.6146 73.2024 29.5104 73.7339 29.5104 74.3636C29.5104 74.9934 29.6146 75.5249 29.8229 75.9581C30.0336 76.3913 30.3165 76.7192 30.6716 76.9418C31.0291 77.1643 31.428 77.2756 31.8683 77.2756C32.3087 77.2756 32.7064 77.1643 33.0615 76.9418C33.419 76.7192 33.7019 76.3913 33.9102 75.9581C34.1209 75.5249 34.2263 74.9934 34.2263 74.3636Z" fill="white"/>
<path d="M41.3321 70.7273H42.2128V75.5426C42.2128 76.0398 42.0956 76.4837 41.8612 76.8743C41.6292 77.2625 41.3013 77.5691 40.8776 77.794C40.4538 78.0166 39.9566 78.1278 39.3861 78.1278C38.8155 78.1278 38.3184 78.0166 37.8946 77.794C37.4709 77.5691 37.1418 77.2625 36.9074 76.8743C36.6754 76.4837 36.5594 76.0398 36.5594 75.5426V70.7273H37.4401V75.4716C37.4401 75.8267 37.5182 76.1428 37.6744 76.4197C37.8307 76.6944 38.0532 76.911 38.3421 77.0696C38.6333 77.2259 38.9813 77.304 39.3861 77.304C39.7909 77.304 40.1389 77.2259 40.4301 77.0696C40.7213 76.911 40.9439 76.6944 41.0977 76.4197C41.254 76.1428 41.3321 75.8267 41.3321 75.4716V70.7273Z" fill="white"/>
<path d="M49.7385 70.7273V78H48.8863L44.9232 72.2898H44.8522V78H43.9715V70.7273H44.8238L48.801 76.4517H48.8721V70.7273H49.7385Z" fill="white"/>
<path d="M53.7451 78H51.5008V70.7273H53.8445C54.55 70.7273 55.1537 70.8729 55.6556 71.1641C56.1575 71.4529 56.5422 71.8684 56.8097 72.4105C57.0773 72.9503 57.211 73.5966 57.211 74.3494C57.211 75.107 57.0761 75.7592 56.8062 76.3061C56.5363 76.8506 56.1433 77.2696 55.6272 77.5632C55.1111 77.8544 54.4838 78 53.7451 78ZM52.3815 77.2188H53.6883C54.2896 77.2188 54.788 77.1027 55.1833 76.8707C55.5787 76.6387 55.8734 76.3085 56.0676 75.88C56.2617 75.4515 56.3588 74.9413 56.3588 74.3494C56.3588 73.7623 56.2629 73.2569 56.0711 72.8331C55.8793 72.407 55.5929 72.0803 55.2117 71.853C54.8306 71.6233 54.3559 71.5085 53.7877 71.5085H52.3815V77.2188Z" fill="white"/>
<path d="M34.5327 23.5455V41H32.4872L22.9759 27.2955H22.8054V41H20.6918V23.5455H22.7372L32.2827 37.2841H32.4531V23.5455H34.5327Z" fill="white"/>
<path d="M44.6598 22.7273L39.0348 43.625H37.1939L42.8189 22.7273H44.6598Z" fill="white"/>
<path d="M48.0327 41H45.8168L52.2259 23.5455H54.4077L60.8168 41H58.6009L53.3849 26.3068H53.2486L48.0327 41ZM48.8509 34.1818H57.7827V36.0568H48.8509V34.1818Z" fill="white"/>
</svg>
